<?xml version="1.0" encoding="utf-8"?>
<!-- Generator: Adobe Illustrator 24.0.2, SVG Export Plug-In . SVG Version: 6.00 Build 0)  -->
<svg version="1.1" id="Слой_1" xmlns="http://www.w3.org/2000/svg" xmlns:xlink="http://www.w3.org/1999/xlink" x="0px" y="0px"
	 viewBox="0 0 2049 2049" style="enable-background:new 0 0 2049 2049;" xml:space="preserve">
<style type="text/css">
	.st0{fill:#1A1A1A;}
	.st1{fill:#990000;}
</style>
<title>slogo</title>
<g>
	<circle class="st0" cx="1024.5" cy="1024.5" r="1024"/>
</g>
<image style="overflow:visible;enable-background:new    ;" width="1856" height="1321" xlink:href="AC8B3FDF.png"  transform="matrix(1 0 0 1 134.5 368.5)">
</image>
<path class="st1" d="M979.8,804.8c0,42.2-8.1,82-24.2,119.2c-31.3,73.4-89.7,131.9-163,163.4c-37,16.1-76.6,24.2-118.9,24.2H571.3
	c-55.7-0.5-101.3,44.3-101.8,100c0,0.6,0,1.2,0,1.8v101.8h482.6v204.3H265.2v-306.1c0-42.2,8.1-82,24.2-119.2
	c15.6-36.4,37.9-69.5,65.8-97.5c27.9-27.9,60.9-50.1,97.2-65.5c37-15.9,76.6-23.8,118.9-23.8h102.5c27.1,0.2,53.1-10.4,72.3-29.5
	c9.3-9.4,16.7-20.5,21.7-32.8c5.3-12.7,7.9-26.4,7.8-40.2c0.4-55.8-44.4-101.4-100.2-101.8c-0.5,0-1.1,0-1.6,0H309.3V498.8h364.5
	c42.2,0,81.9,8.1,118.9,24.2c73.2,31.4,131.6,89.8,163,163C971.8,723,979.8,762.6,979.8,804.8z"/>
<path class="st1" d="M1820.5,1213.4c0,42.2-8.1,81.9-24.2,118.9c-31.4,73.2-89.8,131.6-163,163c-37,16.1-76.6,24.2-118.9,24.2
	h-408.6v-204.3h408.6c56.2,0,101.8-45.5,101.9-101.7c0-56.2-45.5-101.8-101.7-101.9c0,0-0.1,0-0.1,0h-278.3V907.3h278.3
	c27.1,0.2,53.1-10.4,72.3-29.5c9.3-9.4,16.7-20.5,21.7-32.8c5.3-12.7,7.9-26.4,7.8-40.2c0.4-55.8-44.4-101.4-100.2-101.8
	c-0.5,0-1.1,0-1.6,0h-408.6V498.8h408.6c42.2,0,81.9,8.1,118.9,24.2c73.2,31.4,131.6,89.8,163,163c16.1,37,24.2,76.7,24.2,118.9
	c0,37.4-7,74.5-20.7,109.3c-13.5,34.9-33.3,67.1-58.3,95c25,27.9,44.8,60.1,58.3,95C1813.5,1138.9,1820.5,1176,1820.5,1213.4z"/>
</svg>
